<svg width="28" height="28" viewBox="0 0 28 28" fill="none" xmlns="http://www.w3.org/2000/svg">
<g clip-path="url(#clip0_1254_38372)">
<path d="M23.6856 5.67914L21.3545 3.34803C20.9891 2.98261 20.4058 2.96872 20.0323 3.32572L0.577896 21.9144C0.206896 22.2689 0.00597453 22.7401 0.000122968 23.2531C-0.00572859 23.7661 0.19749 24.2418 0.560232 24.6046L2.41786 26.4622L2.41551 26.4646C2.77415 26.8232 3.24872 27.0274 3.75344 27.0274C3.76076 27.0274 3.76929 27.0319 3.77662 27.0319C4.2897 27.026 4.76794 26.8208 5.12226 26.4499L23.7076 7.00028C24.0647 6.6266 24.051 6.04456 23.6856 5.67914Z" fill="#8F5543"/>
<path d="M22.5019 4.4955L21.3546 3.34815C20.9891 2.98273 20.4058 2.96884 20.0323 3.32584L0.577896 21.9144C0.206896 22.2689 0.00597453 22.7401 0.000122968 23.2531C-0.00572859 23.7662 0.19749 24.2418 0.560232 24.6047L1.47641 25.5209L22.5019 4.4955Z" fill="#C97E67"/>
<path d="M27.9443 10.4665C27.7955 9.91644 27.3592 9.48342 26.8081 9.33861C25.608 9.02339 24.577 8.21784 23.9808 7.12983C23.747 6.70322 23.3375 6.41972 22.856 6.35076C22.3746 6.2819 21.9016 6.44028 21.5577 6.78426L19.6382 8.7038C19.2943 9.04772 19.1354 9.52012 19.2042 10.0016C19.273 10.4832 19.5556 10.8941 19.9822 11.1279C21.0703 11.7242 21.8807 12.7505 22.1901 13.9564L22.1895 13.9559C22.3582 14.4831 22.7667 14.9404 23.3167 15.0893C23.4536 15.1263 23.5963 15.1465 23.7349 15.1465C24.1529 15.1465 24.5655 14.9842 24.8682 14.6816L27.5355 12.0142C27.9382 11.6114 28.0932 11.0166 27.9443 10.4665Z" fill="#CCCCCC"/>
<path d="M19.9879 3.77482L19.5879 3.37478L19.5892 3.37347C17.4822 1.26636 14.3771 0.461581 11.5052 1.28731L11.2592 1.35813C10.6452 1.53466 10.2543 2.10264 10.3094 2.73904C10.3645 3.37544 10.8462 3.86774 11.4814 3.93604C13.2838 4.12996 14.9174 5.09033 15.9636 6.57078C16.1481 6.83185 16.4416 6.97311 16.7409 6.97311C16.9103 6.97311 17.0815 6.92783 17.236 6.8335L19.8092 5.26096C20.0579 5.10898 20.2243 4.8502 20.2588 4.56068C20.2932 4.27133 20.1941 3.98094 19.9879 3.77482Z" fill="#E1E1E1"/>
<path d="M23.6856 5.67913L21.3545 3.34802C20.989 2.9826 20.3933 2.98112 20.0198 3.33812L15.2412 7.90436L19.1292 11.7924L23.6955 7.01383C24.0525 6.64015 24.0509 6.04455 23.6856 5.67913Z" fill="#2C6991"/>
<path d="M22.5019 4.49548L21.3545 3.34814C20.9891 2.98272 20.3934 2.98124 20.0199 3.33824L15.2412 7.90437L17.167 9.83019L22.5019 4.49548Z" fill="#528FB3"/>
<path d="M23.1565 7.57814L23.7005 7.00895C24.0575 6.63527 24.056 6.03972 23.6906 5.67424L21.3595 3.34313C20.994 2.97771 20.3983 2.97624 20.0248 3.33324L19.4556 3.87721L23.1565 7.57814Z" fill="#8F5543"/>
<path d="M21.2878 5.70946L22.5068 4.49048L21.3595 3.34313C20.994 2.97771 20.3983 2.97624 20.0248 3.33324L19.4556 3.87721L21.2878 5.70946Z" fill="#C97E67"/>
</g>
<defs>
<clipPath id="clip0_1254_38372">
<rect width="28" height="28" fill="white"/>
</clipPath>
</defs>
</svg>
