<svg width="36" height="36" viewBox="0 0 36 36" fill="none" xmlns="http://www.w3.org/2000/svg">
<g clip-path="url(#clip0_1254_38354)" filter="url(#filter0_dddd_1254_38354)">
<path d="M29.5653 24.3478H12.5218L11.3044 10.3478H30.7827L29.5653 24.3478Z" fill="#AF7AAE"/>
<path d="M30.7827 9.13049V10.3479L30.6768 11.5653H11.4103L11.3044 10.3479V9.13049H30.7827Z" fill="#8E5B8E"/>
<path d="M32 7.91308V9.13048C32 9.80286 31.455 10.3479 30.7826 10.3479H11.3043C10.6319 10.3479 10.0869 9.80286 10.0869 9.13048V7.91308C10.0869 7.24069 10.6319 6.69568 11.3043 6.69568H30.7826C31.455 6.69568 32 7.24069 32 7.91308Z" fill="#D199D1"/>
<path d="M30.1739 23.7392C30.1739 24.7477 29.3564 25.5652 28.3479 25.5652H24.5914C24.6587 25.7557 24.6957 25.9605 24.6957 26.1739C24.6957 27.1824 23.8782 28 22.8696 28H5.82607C4.81752 28 4 27.1825 4 26.174C4 25.1655 4.81752 24.3479 5.82607 24.3479H9.58256C9.51523 24.1575 9.47821 23.9527 9.47821 23.7392C9.47821 22.7307 10.2957 21.9132 11.3043 21.9132H28.3478C29.3564 21.9131 30.1739 22.7307 30.1739 23.7392ZM25.1843 8.51593C25.4514 8.5419 25.7019 8.47989 25.913 8.35761V10.9274C25.913 11.5875 26.4263 12.1497 27.086 12.1732C27.7786 12.1978 28.3478 11.6437 28.3478 10.9566V6.69571C28.3478 6.35954 28.0752 6.08704 27.7391 6.08704H26.5217H25.913H24.6956C24.3594 6.08704 24.0869 6.35954 24.0869 6.69571V7.27671C24.0869 7.90775 24.5563 8.45484 25.1843 8.51593Z" fill="#A7E5CB"/>
<path d="M13.739 23.7391C13.739 24.0753 13.4665 24.3478 13.1303 24.3478H11.3043C10.9681 24.3478 10.6956 24.0753 10.6956 23.7391C10.6956 23.403 10.9681 23.1304 11.3043 23.1304H13.1303C13.4665 23.1304 13.739 23.403 13.739 23.7391ZM10.6956 25.5652H5.82596C5.48979 25.5652 5.21729 25.8377 5.21729 26.1739C5.21729 26.51 5.48979 26.7825 5.82596 26.7825H10.6955C11.0317 26.7825 11.3042 26.51 11.3042 26.1739C11.3042 25.8377 11.0317 25.5652 10.6956 25.5652ZM27.1303 7.30432C26.7942 7.30432 26.5217 7.57683 26.5217 7.91299V10.9565C26.5217 11.2926 26.7942 11.5651 27.1303 11.5651C27.4665 11.5651 27.739 11.2926 27.739 10.9565V7.91299C27.739 7.57683 27.4665 7.30432 27.1303 7.30432Z" fill="#D7F3FF"/>
<path d="M23.4783 20.6956H27.1305C29.8199 20.6956 32 22.8758 32 25.5652V27.3912C32 27.7274 31.7275 27.9999 31.3913 27.9999H19.8261C17.1367 27.9999 14.9565 25.8197 14.9565 23.1304V18.8695C14.9565 18.1971 15.5016 17.6521 16.1739 17.6521H21.0435C21.7159 17.6521 22.2609 18.1971 22.2609 18.8695V19.4782C22.2609 20.1506 22.8059 20.6956 23.4783 20.6956Z" fill="#A89B80"/>
<path d="M32 25.5652V28H22.2609C19.5715 28 17.3914 25.8199 17.3914 23.1305V18.8696C17.3914 18.1972 17.9364 17.6522 18.6088 17.6522H21.0436C21.7159 17.6522 22.261 18.1972 22.261 18.8696V19.4783C22.261 20.1507 22.806 20.6957 23.4783 20.6957H25.9131H27.1305C29.8199 20.6957 32 22.8759 32 25.5652Z" fill="#C1B291"/>
<path d="M32 25.5652V28H24.6957C22.0063 28 19.8262 25.8198 19.8262 23.1305V20.6957C19.8262 23.3851 22.0063 25.5652 24.6957 25.5652H32Z" fill="#A89B80"/>
<path d="M31.347 23.1304H24.6957C22.0063 23.1304 19.8262 20.9503 19.8262 18.2609V17.6522H21.0436C21.716 17.6522 22.261 18.1972 22.261 18.8696V19.4783C22.261 20.1507 22.806 20.6957 23.4784 20.6957H27.1306C28.9326 20.6956 30.5049 21.6753 31.347 23.1304Z" fill="#DBCBA1"/>
<path d="M19.8261 1.2174V14.6087V15.8261H17.3914V14.6087V1.2174C17.3914 0.545016 17.9364 0 18.6087 0C19.2811 0 19.8261 0.545016 19.8261 1.2174Z" fill="#91F18B"/>
<path d="M18.6087 1.2174V15.8261H17.3914V1.2174C17.3914 0.545016 17.9364 0 18.6087 0C18.8307 0 19.0382 0.060375 19.2174 0.164172C18.8539 0.374773 18.6087 0.767102 18.6087 1.2174Z" fill="#6BAF6E"/>
<path d="M22.8696 17.0435C22.8696 17.7159 22.3246 18.2609 21.6522 18.2609H15.5653C14.8929 18.2609 14.3479 17.7159 14.3479 17.0435C14.3479 16.3711 14.8929 15.8261 15.5653 15.8261H16.7827V15.2174C16.7827 14.8813 17.0552 14.6088 17.3914 14.6088H19.8262C20.1623 14.6088 20.4348 14.8813 20.4348 15.2174V15.8261H21.6522C22.3246 15.8261 22.8696 16.3711 22.8696 17.0435Z" fill="#FFC248"/>
<path d="M22.8696 17.0434H14.3479C14.3479 16.3711 14.8929 15.826 15.5653 15.826H21.6522C22.3246 15.826 22.8696 16.3711 22.8696 17.0434Z" fill="#FFFF63"/>
</g>
<defs>
<filter id="filter0_dddd_1254_38354" x="0" y="0" width="36" height="36" filterUnits="userSpaceOnUse" color-interpolation-filters="sRGB">
<feFlood flood-opacity="0" result="BackgroundImageFix"/>
<feColorMatrix in="SourceAlpha" type="matrix" values="0 0 0 0 0 0 0 0 0 0 0 0 0 0 0 0 0 0 127 0" result="hardAlpha"/>
<feOffset dy="4"/>
<feGaussianBlur stdDeviation="2"/>
<feComposite in2="hardAlpha" operator="out"/>
<feColorMatrix type="matrix" values="0 0 0 0 0 0 0 0 0 0 0 0 0 0 0 0 0 0 0.25 0"/>
<feBlend mode="normal" in2="BackgroundImageFix" result="effect1_dropShadow_1254_38354"/>
<feColorMatrix in="SourceAlpha" type="matrix" values="0 0 0 0 0 0 0 0 0 0 0 0 0 0 0 0 0 0 127 0" result="hardAlpha"/>
<feOffset dy="4"/>
<feGaussianBlur stdDeviation="2"/>
<feComposite in2="hardAlpha" operator="out"/>
<feColorMatrix type="matrix" values="0 0 0 0 0 0 0 0 0 0 0 0 0 0 0 0 0 0 0.25 0"/>
<feBlend mode="normal" in2="effect1_dropShadow_1254_38354" result="effect2_dropShadow_1254_38354"/>
<feColorMatrix in="SourceAlpha" type="matrix" values="0 0 0 0 0 0 0 0 0 0 0 0 0 0 0 0 0 0 127 0" result="hardAlpha"/>
<feOffset dy="4"/>
<feGaussianBlur stdDeviation="2"/>
<feComposite in2="hardAlpha" operator="out"/>
<feColorMatrix type="matrix" values="0 0 0 0 0 0 0 0 0 0 0 0 0 0 0 0 0 0 0.25 0"/>
<feBlend mode="normal" in2="effect2_dropShadow_1254_38354" result="effect3_dropShadow_1254_38354"/>
<feColorMatrix in="SourceAlpha" type="matrix" values="0 0 0 0 0 0 0 0 0 0 0 0 0 0 0 0 0 0 127 0" result="hardAlpha"/>
<feOffset dy="4"/>
<feGaussianBlur stdDeviation="2"/>
<feComposite in2="hardAlpha" operator="out"/>
<feColorMatrix type="matrix" values="0 0 0 0 0 0 0 0 0 0 0 0 0 0 0 0 0 0 0.25 0"/>
<feBlend mode="normal" in2="effect3_dropShadow_1254_38354" result="effect4_dropShadow_1254_38354"/>
<feBlend mode="normal" in="SourceGraphic" in2="effect4_dropShadow_1254_38354" result="shape"/>
</filter>
<clipPath id="clip0_1254_38354">
<rect width="28" height="28" fill="white" transform="translate(4)"/>
</clipPath>
</defs>
</svg>
