<svg width="28" height="28" viewBox="0 0 28 28" fill="none" xmlns="http://www.w3.org/2000/svg">
<g clip-path="url(#clip0_1254_38425)">
<path d="M28 16.7392V17.3478C28 17.8521 27.5912 18.2609 27.0869 18.2609H0.913062C0.408789 18.2609 0 17.8521 0 17.3478V16.7392C0 16.2349 0.408789 15.8261 0.913062 15.8261H27.087C27.5912 15.8261 28 16.2349 28 16.7392ZM10.9946 8.33058L17.0585 7.80011L16.8993 5.98099C16.8406 5.31123 16.2502 4.81576 15.5804 4.87433L11.9421 5.19261C11.2723 5.25124 10.7769 5.84164 10.8355 6.51146L10.9946 8.33058Z" fill="#5B7A7F"/>
<path d="M24.2139 15.3385L23.5689 21.7889C23.3199 24.2782 21.2252 26.1739 18.7234 26.1739H9.2764C6.77467 26.1739 4.67997 24.2782 4.43098 21.7889L3.78594 15.3385C3.7143 14.6219 4.27704 14 4.99732 14H23.0025C23.7228 14 24.2856 14.6219 24.2139 15.3385Z" fill="#769CA5"/>
<path d="M24.2139 15.3385L23.5688 21.7888C23.3199 24.2782 21.2252 26.1739 18.7234 26.1739H14.8823C12.3805 26.1739 10.2858 24.2782 10.0369 21.7888L9.39182 15.3385C9.32017 14.6218 9.88291 14 10.6032 14H23.0024C23.7228 14 24.2855 14.6218 24.2139 15.3385ZM25.0208 8.01994C24.9476 7.18268 24.2094 6.56334 23.3722 6.63662L4.5745 8.28119C3.73724 8.35447 3.11796 9.09253 3.19118 9.9298C3.26441 10.767 4.00253 11.3863 4.83974 11.3131L23.6375 9.66855C24.4747 9.59527 25.094 8.85716 25.0208 8.01994Z" fill="#90B5BF"/>
<path d="M25.0208 8.01993C25.094 8.8572 24.4748 9.59526 23.6375 9.66854L4.83977 11.3131C4.0025 11.3863 3.26444 10.7671 3.19116 9.92979C3.16185 9.59422 3.24393 9.27468 3.40652 9.00737C3.69789 9.48616 4.24351 9.78536 4.83977 9.73318L23.6375 8.08862C24.1392 8.04476 24.5624 7.76197 24.8055 7.36243C24.9233 7.55608 24.9998 7.77882 25.0208 8.01993Z" fill="#769CA5"/>
<path d="M20.087 13.3914C20.4231 13.3914 20.6956 13.6639 20.6956 14V18.8696C20.6956 19.5567 20.1264 20.1108 19.4339 20.0861C18.7742 20.0627 18.2609 19.5004 18.2609 18.8404V18.0967C18.0497 18.219 17.7993 18.281 17.5322 18.255C16.9041 18.1938 16.4348 17.6468 16.4348 17.0158V14C16.4348 13.6639 16.7073 13.3914 17.0435 13.3914H18.2609H18.8696H20.087Z" fill="#FFA233"/>
<path d="M19.4784 17.0435C18.806 17.0435 18.261 16.4985 18.261 15.8261V13.3914H20.0871C20.4232 13.3914 20.6957 13.6639 20.6957 14V15.8261C20.6958 16.4985 20.1508 17.0435 19.4784 17.0435Z" fill="#FFC248"/>
<path d="M25.4131 27.5434C25.4131 27.7956 25.2086 28 24.9565 28H2.4348C2.18269 28 1.97827 27.7956 1.97827 27.5434C1.97827 27.2913 2.18269 27.0869 2.4348 27.0869H24.9565C25.2086 27.0869 25.4131 27.2913 25.4131 27.5434Z" fill="#5B7A7F"/>
<path d="M19.9348 0.456531V4.7174C19.9348 4.96951 19.7305 5.17393 19.4783 5.17393C19.2261 5.17393 19.0217 4.96951 19.0217 4.7174V0.456531C19.0217 0.204422 19.226 0 19.4783 0C19.7304 0 19.9348 0.204422 19.9348 0.456531ZM21.3043 0C21.0522 0 20.8478 0.204422 20.8478 0.456531V4.7174C20.8478 4.96951 21.0521 5.17393 21.3043 5.17393C21.5565 5.17393 21.7609 4.96951 21.7609 4.7174V0.456531C21.7609 0.204422 21.5565 0 21.3043 0Z" fill="#FFC248"/>
</g>
<defs>
<clipPath id="clip0_1254_38425">
<rect width="28" height="28" fill="white"/>
</clipPath>
</defs>
</svg>
