<svg width="28" height="28" viewBox="0 0 28 28" fill="none" xmlns="http://www.w3.org/2000/svg">
<g clip-path="url(#clip0_1254_38385)">
<path d="M28 13.3913V15.8261C28 16.4985 27.455 17.0435 26.7826 17.0435H26.1739L24.3479 26.917C24.2793 27.5335 23.7582 28 23.1378 28H4.86216C4.24184 28 3.72072 27.5335 3.6522 26.917L1.82607 17.0434H1.2174C0.545016 17.0434 0 16.4984 0 15.826V13.3913C0 12.7189 0.545016 12.1739 1.2174 12.1739H1.82607C1.82607 9.48447 4.00624 7.30435 6.69561 7.30435H12.2957C12.8597 4.52596 15.316 2.43481 18.2608 2.43481H20.0869C23.4486 2.43481 26.1738 5.16 26.1738 8.52175V12.1739H26.7825C27.455 12.1739 28 12.7189 28 13.3913Z" fill="#A7E5CB"/>
<path d="M28 13.3913V15.8261C28 16.4985 27.455 17.0435 26.7826 17.0435H26.1739L25.9488 18.2609H2.05122L1.82607 17.0435H1.2174C0.545016 17.0435 0 16.4985 0 15.8261V13.3913C0 12.719 0.545016 12.174 1.2174 12.174H26.7826C27.455 12.174 28 12.719 28 13.3913Z" fill="#64AF8F"/>
<path d="M16.4348 9.73913H9.73914C7.38594 9.73913 5.47827 7.83147 5.47827 5.47827C5.47827 2.45268 7.93095 0 10.9565 0H15.2174C17.9068 0 20.0869 2.18017 20.0869 4.86954V6.08694C20.0869 8.10398 18.4518 9.73913 16.4348 9.73913Z" fill="#84D88B"/>
<path d="M28 13.3913V15.8261C28 16.4985 27.455 17.0435 26.7826 17.0435H1.2174C0.545016 17.0435 0 16.4985 0 15.8261V13.3913C0 12.719 0.545016 12.174 1.2174 12.174H26.7826C27.455 12.174 28 12.719 28 13.3913Z" fill="#93D6BB"/>
<path d="M18.2608 2.43481H20.0869C23.4486 2.43481 26.1738 5.16006 26.1738 8.52175V12.1739H12.1738V8.52175C12.1739 5.16006 14.8991 2.43481 18.2608 2.43481Z" fill="#FF9CAB"/>
<path d="M22.5218 12.174C22.5218 13.5187 21.4317 14.6088 20.087 14.6088H14.6088C13.5482 14.6088 12.646 13.9307 12.3121 12.9843C12.1407 12.4983 11.6806 12.174 11.1653 12.174H1.82617C1.82617 9.48456 4.00634 7.30444 6.69571 7.30444H17.6522C20.3417 7.30439 22.5218 9.48456 22.5218 12.174Z" fill="#FFE77C"/>
<path d="M22.9782 22.5218C22.9782 22.7739 22.7737 22.9783 22.5216 22.9783H19.5768L19.3225 25.0132C19.2936 25.2441 19.0969 25.4132 18.87 25.4132C18.8512 25.4132 18.832 25.412 18.8129 25.4096C18.5627 25.3783 18.3852 25.1501 18.4165 24.9L18.6567 22.9783H14.4565V24.9566C14.4565 25.2087 14.252 25.4131 13.9999 25.4131C13.7478 25.4131 13.5434 25.2087 13.5434 24.9566V22.9783H9.34319L9.58338 24.9C9.61466 25.1502 9.43725 25.3783 9.187 25.4096C9.16781 25.412 9.14872 25.4132 9.12985 25.4132C8.90295 25.4132 8.7063 25.2442 8.67742 25.0132L8.42307 22.9783H5.47826C5.22615 22.9783 5.02173 22.7739 5.02173 22.5218C5.02173 22.2697 5.22615 22.0653 5.47826 22.0653H8.30894L8.06875 20.1436C8.03747 19.8934 8.21488 19.6653 8.46513 19.634C8.71494 19.6024 8.94342 19.7802 8.9747 20.0304L9.22906 22.0653H13.5434V20.087C13.5434 19.8349 13.7478 19.6305 13.9999 19.6305C14.252 19.6305 14.4565 19.8349 14.4565 20.087V22.0653H18.7708L19.0252 20.0304C19.0565 19.7802 19.2845 19.6027 19.5348 19.634C19.7849 19.6653 19.9624 19.8934 19.9311 20.1436L19.6909 22.0653H22.5216C22.7737 22.0653 22.9782 22.2697 22.9782 22.5218Z" fill="#64AF8F"/>
</g>
<defs>
<clipPath id="clip0_1254_38385">
<rect width="28" height="28" fill="white"/>
</clipPath>
</defs>
</svg>
