<svg width="28" height="28" viewBox="0 0 28 28" fill="none" xmlns="http://www.w3.org/2000/svg">
<path d="M7.30434 24.1957C7.30434 24.4478 7.09991 24.6522 6.84781 24.6522H2.89133C2.63922 24.6522 2.4348 24.4478 2.4348 24.1957C2.4348 23.9436 2.63922 23.7391 2.89133 23.7391H6.84786C7.09997 23.7391 7.30434 23.9436 7.30434 24.1957ZM1.0652 23.7391H0.456531C0.204422 23.7391 0 23.9436 0 24.1957C0 24.4478 0.204422 24.6522 0.456531 24.6522H1.0652C1.31731 24.6522 1.52173 24.4478 1.52173 24.1957C1.52173 23.9436 1.31731 23.7391 1.0652 23.7391ZM26.0217 23.7391H11.4131C11.161 23.7391 10.9565 23.9436 10.9565 24.1957C10.9565 24.4478 11.161 24.6522 11.4131 24.6522H26.0217C26.2738 24.6522 26.4783 24.4478 26.4783 24.1957C26.4783 23.9436 26.2738 23.7391 26.0217 23.7391Z" fill="#C1C1C1"/>
<path d="M25.5652 14.3044V16.4348H0V14.3044V8.21744C0 5.52802 2.18017 3.3479 4.86954 3.3479H11.5441C13.8887 3.3479 16.1297 4.3139 17.7396 6.01846L25.5652 14.3044Z" fill="#D7F3FF"/>
<path d="M7.91306 15.8261H0V8.21744C0 5.52802 2.18017 3.3479 4.86954 3.3479H7.91301L7.91306 15.8261Z" fill="#B5E1F4"/>
<path d="M0 14.3043H25.5652C26.9099 14.3043 28 15.3944 28 16.7391V17.9565C28 19.9736 26.3648 21.6087 24.3478 21.6087H3.6522C1.63516 21.6087 0 19.9736 0 17.9565V14.3043Z" fill="#AF7AAE"/>
<path d="M27.8583 15.9198C27.9498 16.1759 28 16.4516 28 16.7392V17.9566C28 19.9736 26.3648 21.6087 24.3478 21.6087H3.6522C1.63516 21.6087 0 19.9736 0 17.9566V14.9131C0 16.9301 1.63516 18.5653 3.6522 18.5653H24.3479C26.0154 18.5652 27.4211 17.4471 27.8583 15.9198Z" fill="#8E5B8E"/>
<path d="M10.3477 21.3043C10.3477 23.1533 8.84883 24.6522 6.9999 24.6522C5.15097 24.6522 3.6521 23.1533 3.6521 21.3043C3.6521 19.4554 5.15092 17.9565 6.9999 17.9565C8.84889 17.9565 10.3477 19.4554 10.3477 21.3043ZM21.6086 17.9565C19.7596 17.9565 18.2608 19.4554 18.2608 21.3043C18.2608 23.1533 19.7596 24.6522 21.6086 24.6522C23.4575 24.6522 24.9564 23.1533 24.9564 21.3043C24.9564 19.4554 23.4576 17.9565 21.6086 17.9565Z" fill="#93D6BB"/>
<path d="M8.33915 21.3043C8.33915 22.0439 7.73962 22.6435 7.00002 22.6435C6.26043 22.6435 5.66089 22.0439 5.66089 21.3043C5.66089 20.5648 6.26043 19.9652 7.00002 19.9652C7.73962 19.9652 8.33915 20.5648 8.33915 21.3043ZM21.6087 19.9652C20.8692 19.9652 20.2696 20.5647 20.2696 21.3043C20.2696 22.0439 20.8691 22.6435 21.6087 22.6435C22.3482 22.6435 22.9478 22.0439 22.9478 21.3043C22.9478 20.5648 22.3483 19.9652 21.6087 19.9652Z" fill="#5B7A7F"/>
<path d="M16.8914 16.1305C16.8914 16.3826 16.687 16.587 16.4349 16.587H15.2175C14.9654 16.587 14.761 16.3826 14.761 16.1305C14.761 15.8784 14.9654 15.6739 15.2175 15.6739H16.4349C16.687 15.6739 16.8914 15.8783 16.8914 16.1305ZM20.6958 12.4783H18.8697C18.1973 12.4783 17.6523 13.0233 17.6523 13.6957C17.6523 14.3681 18.1973 14.9131 18.8697 14.9131H20.6958C21.3682 14.9131 21.9132 14.3681 21.9132 13.6957C21.9132 13.0233 21.3681 12.4783 20.6958 12.4783Z" fill="#8E5B8E"/>
</svg>
