<svg width="28" height="28" viewBox="0 0 28 28" fill="none" xmlns="http://www.w3.org/2000/svg">
<g clip-path="url(#clip0_1254_38397)">
<path d="M12.635 19.1746C12.109 19.1746 11.6826 18.7482 11.6826 18.2223V15.0596C11.6826 14.7136 11.8703 14.3947 12.1729 14.2268L24.1905 7.5582V5.14293H21.3969C20.8709 5.14293 20.4445 4.71653 20.4445 4.19054C20.4445 3.66456 20.8709 3.23816 21.3969 3.23816H25.1429C25.6689 3.23816 26.0953 3.66456 26.0953 4.19054V8.11891C26.0953 8.46492 25.9076 8.7838 25.605 8.95169L13.5874 15.6204V18.2223C13.5874 18.7482 13.1609 19.1746 12.635 19.1746Z" fill="#CCCCCC"/>
<path d="M12.635 19.1746C12.109 19.1746 11.6826 18.7482 11.6826 18.2222V15.0595C11.6826 14.7135 11.8703 14.3946 12.1729 14.2267L18.889 10.5V12.6784L13.5874 15.6203V18.2222C13.5874 18.7482 13.1609 19.1746 12.635 19.1746Z" fill="#E1E1E1"/>
<path d="M3.36511 5.14292H2.85717C2.33118 5.14292 1.90479 4.71653 1.90479 4.19054C1.90479 3.66456 2.33118 3.23816 2.85717 3.23816H3.36511C3.89109 3.23816 4.31749 3.66456 4.31749 4.19054C4.31749 4.71653 3.89109 5.14292 3.36511 5.14292Z" fill="#528FB3"/>
<path d="M15.8729 18.1587C15.8729 17.6327 15.4465 17.2063 14.9205 17.2063H10.3491C9.82313 17.2063 9.39673 17.6327 9.39673 18.1587V27.0476C9.39673 27.5736 9.82313 28 10.3491 28H14.9205C15.4465 28 15.8729 27.5736 15.8729 27.0476V18.1587Z" fill="#4AD0FF"/>
<path d="M12.6348 17.2063H10.3491C9.82313 17.2063 9.39673 17.6327 9.39673 18.1587V27.0476C9.39673 27.5736 9.82313 28 10.3491 28H12.6348V17.2063Z" fill="#99E5FF"/>
<path d="M9.39673 24.381V27.0477C9.39673 27.5736 9.82313 28 10.3491 28H14.9205C15.4465 28 15.8729 27.5736 15.8729 27.0477V24.381H9.39673Z" fill="#2C6991"/>
<path d="M9.39673 24.381V27.0477C9.39673 27.5736 9.82313 28 10.3491 28H12.6348V24.381H9.39673Z" fill="#528FB3"/>
<path d="M22.0952 2.71715C22.0952 1.21652 20.8787 0 19.378 0H5.82823C4.32761 0 3.11108 1.21652 3.11108 2.71715V5.66382C3.11108 7.16445 4.32761 8.38097 5.82823 8.38097H19.3781C20.8787 8.38097 22.0952 7.16445 22.0952 5.66382V2.71715H22.0952Z" fill="#F6D76F"/>
<path d="M12.6349 0H5.82823C4.32761 0 3.11108 1.21652 3.11108 2.71715V5.66382C3.11108 7.16445 4.32761 8.38097 5.82823 8.38097H12.6349V0Z" fill="#FAEAB6"/>
</g>
<defs>
<clipPath id="clip0_1254_38397">
<rect width="28" height="28" fill="white"/>
</clipPath>
</defs>
</svg>
