<svg width="28" height="28" viewBox="0 0 28 28" fill="none" xmlns="http://www.w3.org/2000/svg">
<g clip-path="url(#clip0_1254_38443)">
<path d="M20.394 3.97265C19.9679 3.56977 19.387 3.35758 18.8023 3.3904L11.6142 3.79388C11.2139 3.8163 10.9126 4.14743 10.9126 4.54829V6.51037C10.9126 6.91128 11.2139 7.23372 11.6142 7.25614L18.8003 7.65098H18.8013C18.8408 7.65098 18.8807 7.6629 18.9201 7.6629C19.4648 7.6629 19.9963 7.45728 20.3938 7.08169C20.8198 6.6788 21.0644 6.11356 21.0644 5.5272C21.0644 4.94084 20.82 4.37548 20.394 3.97265Z" fill="#ABA8AB"/>
<path d="M9.46026 3.7939L2.26138 3.39042C1.67584 3.35749 1.09626 3.56985 0.670139 3.97267C0.244125 4.37555 0 4.94299 0 5.52935C0 6.11571 0.244507 6.68309 0.670632 7.08597C1.06794 7.46167 1.59933 7.67151 2.14396 7.67151C2.18334 7.67151 2.22288 7.67042 2.26231 7.66823L9.46015 7.26474C9.86041 7.24232 10.1715 6.91119 10.1715 6.51033V4.54826C10.1716 4.14745 9.86052 3.81632 9.46026 3.7939Z" fill="#CCCCCC"/>
<path d="M10.6045 1.53857H10.4602C9.23762 1.53857 8.25757 2.56719 8.25757 3.78978V7.79607C8.25757 8.30756 8.65755 8.70065 9.16904 8.70065H11.8955C12.407 8.70065 12.8264 8.30756 12.8264 7.79607V3.78973C12.8265 2.56719 11.8271 1.53857 10.6045 1.53857Z" fill="#2C6991"/>
<path d="M10.5421 1.53857H10.4602C9.23762 1.53857 8.25757 2.56719 8.25757 3.78978V7.79607C8.25757 8.30756 8.65755 8.70065 9.16904 8.70065H10.542L10.5421 1.53857Z" fill="#528FB3"/>
<path d="M20.9208 10.3675H16.0907C15.5922 9.50314 14.9085 8.83131 14.0885 8.29953C13.0732 7.64109 11.8948 7.29126 10.6805 7.28223C10.6645 7.28212 10.6487 7.2836 10.6328 7.2836C7.16983 7.2836 4.32144 10.0869 4.2731 13.5538C4.2492 15.2703 4.89938 16.8887 6.10387 18.1101C7.30858 19.3317 8.91688 19.9959 10.6324 19.9959C12.7689 19.9959 14.748 18.8879 15.9222 17.1592H20.3026C20.3549 17.1592 20.4205 17.2192 20.4205 17.2714V24.2435C20.4205 24.755 20.8119 25.1238 21.3234 25.1238H26.2111C26.7226 25.1238 27.1503 24.755 27.1503 24.2435V16.5957C27.1503 13.1679 24.3485 10.3675 20.9208 10.3675Z" fill="#4AD0FF"/>
<path d="M28.0001 23.9095C28.0001 23.273 27.4841 22.757 26.8475 22.757H20.5705C19.934 22.757 19.418 23.2729 19.418 23.9095V25.3089C19.418 25.9454 19.9339 26.4614 20.5705 26.4614H26.8476C27.4841 26.4614 28.0001 25.9455 28.0001 25.3089L28.0001 23.9095Z" fill="#2C6991"/>
<path d="M24.0017 22.7571H20.5705C19.934 22.7571 19.418 23.2731 19.418 23.9096V25.309C19.418 25.9455 19.9339 26.4615 20.5705 26.4615H24.0017V22.7571Z" fill="#528FB3"/>
<path d="M5.71569 9.83255C5.71569 9.38926 5.35634 9.02991 4.91304 9.02991H1.02335C0.580054 9.02991 0.220703 9.38926 0.220703 9.83255V18.5381C0.220703 18.9814 0.580054 19.3407 1.02335 19.3407H4.91304C5.35634 19.3407 5.71569 18.9814 5.71569 18.5381V9.83255Z" fill="#4AD0FF"/>
<path d="M2.9682 9.02991H1.02335C0.580054 9.02991 0.220703 9.38926 0.220703 9.83255V18.5381C0.220703 18.9814 0.580054 19.3407 1.02335 19.3407H2.9682V9.02991Z" fill="#99E5FF"/>
</g>
<defs>
<clipPath id="clip0_1254_38443">
<rect width="28" height="28" fill="white"/>
</clipPath>
</defs>
</svg>
