<svg width="48" height="48" viewBox="0 0 48 48" fill="none" xmlns="http://www.w3.org/2000/svg">
<rect width="48" height="48" rx="5" fill="#004E42" fill-opacity="0.1"/>
<path d="M30.9978 18.353C30.9278 18.3413 30.8461 18.3413 30.7761 18.353C29.1661 18.2947 27.8828 16.9763 27.8828 15.343C27.8828 13.6747 29.2245 12.333 30.8928 12.333C32.5611 12.333 33.9028 13.6863 33.9028 15.343C33.8911 16.9763 32.6078 18.2947 30.9978 18.353Z" stroke="#004E42" stroke-width="1.5" stroke-linecap="round" stroke-linejoin="round"/>
<path d="M29.7928 26.8465C31.3911 27.1149 33.1528 26.8349 34.3895 26.0065C36.0345 24.9099 36.0345 23.1132 34.3895 22.0165C33.1412 21.1882 31.3561 20.9082 29.7578 21.1882" stroke="#004E42" stroke-width="1.5" stroke-linecap="round" stroke-linejoin="round"/>
<path d="M16.9675 18.353C17.0375 18.3413 17.1192 18.3413 17.1892 18.353C18.7992 18.2947 20.0825 16.9763 20.0825 15.343C20.0825 13.6747 18.7408 12.333 17.0725 12.333C15.4042 12.333 14.0625 13.6863 14.0625 15.343C14.0742 16.9763 15.3575 18.2947 16.9675 18.353Z" stroke="#004E42" stroke-width="1.5" stroke-linecap="round" stroke-linejoin="round"/>
<path d="M18.1664 26.8465C16.568 27.1149 14.8064 26.8349 13.5697 26.0065C11.9247 24.9099 11.9247 23.1132 13.5697 22.0165C14.818 21.1882 16.603 20.9082 18.2014 21.1882" stroke="#004E42" stroke-width="1.5" stroke-linecap="round" stroke-linejoin="round"/>
<path d="M24.0056 27.0679C23.9356 27.0562 23.854 27.0562 23.784 27.0679C22.174 27.0095 20.8906 25.6912 20.8906 24.0579C20.8906 22.3895 22.2323 21.0479 23.9006 21.0479C25.569 21.0479 26.9106 22.4012 26.9106 24.0579C26.899 25.6912 25.6156 27.0212 24.0056 27.0679Z" stroke="#004E42" stroke-width="1.5" stroke-linecap="round" stroke-linejoin="round"/>
<path d="M20.6088 30.7429C18.9638 31.8396 18.9638 33.6363 20.6088 34.7329C22.4754 35.9813 25.5321 35.9813 27.3988 34.7329C29.0438 33.6363 29.0438 31.8396 27.3988 30.7429C25.5437 29.5063 22.4754 29.5063 20.6088 30.7429Z" stroke="#004E42" stroke-width="1.5" stroke-linecap="round" stroke-linejoin="round"/>
</svg>
