<svg width="267" height="203" viewBox="0 0 267 203" fill="none" xmlns="http://www.w3.org/2000/svg">
<g clip-path="url(#clip0_1065_16140)">
<circle opacity="0.2" cx="217" cy="100" r="50" fill="#004E42" fill-opacity="0.5"/>
<circle opacity="0.2" cx="134" cy="42" r="24" fill="#004E42" fill-opacity="0.5"/>
<path d="M104 102H104.067M134 102H134.067M164 102H164.067M134 162C167.137 162 194 135.137 194 102C194 68.8629 167.137 42 134 42C100.863 42 74 68.8629 74 102C74 109.981 75.5582 117.598 78.3871 124.563C78.9285 125.897 79.1992 126.563 79.32 127.102C79.4381 127.629 79.4813 128.019 79.4814 128.559C79.4814 129.111 79.3812 129.713 79.1807 130.916L75.2275 154.635C74.8135 157.119 74.6065 158.361 74.9917 159.259C75.3289 160.045 75.9552 160.671 76.7412 161.008C77.6393 161.393 78.8812 161.186 81.3651 160.772L105.084 156.819C106.287 156.619 106.889 156.519 107.441 156.519C107.981 156.519 108.371 156.562 108.898 156.68C109.437 156.801 110.103 157.072 111.437 157.613C118.402 160.442 126.019 162 134 162ZM107.333 102C107.333 103.841 105.841 105.333 104 105.333C102.159 105.333 100.667 103.841 100.667 102C100.667 100.159 102.159 98.6667 104 98.6667C105.841 98.6667 107.333 100.159 107.333 102ZM137.333 102C137.333 103.841 135.841 105.333 134 105.333C132.159 105.333 130.667 103.841 130.667 102C130.667 100.159 132.159 98.6667 134 98.6667C135.841 98.6667 137.333 100.159 137.333 102ZM167.333 102C167.333 103.841 165.841 105.333 164 105.333C162.159 105.333 160.667 103.841 160.667 102C160.667 100.159 162.159 98.6667 164 98.6667C165.841 98.6667 167.333 100.159 167.333 102Z" stroke="#004E42" stroke-width="8" stroke-linecap="round" stroke-linejoin="round"/>
<circle opacity="0.2" cx="50" cy="140" r="50" fill="#004E42" fill-opacity="0.5"/>
</g>
<defs>
<clipPath id="clip0_1065_16140">
<rect width="267" height="203" fill="white"/>
</clipPath>
</defs>
</svg>
