<svg width="20" height="20" viewBox="0 0 20 20" fill="none" xmlns="http://www.w3.org/2000/svg">
<path d="M17.5 4.98307C14.725 4.70807 11.9333 4.56641 9.15 4.56641C7.5 4.56641 5.85 4.64974 4.2 4.81641L2.5 4.98307" stroke="#717171" stroke-width="1.5" stroke-linecap="round" stroke-linejoin="round"/>
<path d="M7.08594 4.14199L7.26927 3.05033C7.4026 2.25866 7.5026 1.66699 8.91094 1.66699H11.0943C12.5026 1.66699 12.6109 2.29199 12.7359 3.05866L12.9193 4.14199" stroke="#717171" stroke-width="1.5" stroke-linecap="round" stroke-linejoin="round"/>
<path d="M15.7057 7.61621L15.1641 16.0079C15.0724 17.3162 14.9974 18.3329 12.6724 18.3329H7.3224C4.9974 18.3329 4.9224 17.3162 4.83073 16.0079L4.28906 7.61621" stroke="#717171" stroke-width="1.5" stroke-linecap="round" stroke-linejoin="round"/>
<path d="M8.60938 13.75H11.3844" stroke="#717171" stroke-width="1.5" stroke-linecap="round" stroke-linejoin="round"/>
<path d="M7.91406 10.417H12.0807" stroke="#717171" stroke-width="1.5" stroke-linecap="round" stroke-linejoin="round"/>
</svg>
