<svg width="24" height="24" viewBox="0 0 24 24" fill="none" xmlns="http://www.w3.org/2000/svg">
<path d="M18.0184 12.33L16.7984 11.11C16.5084 10.86 16.3384 10.49 16.3284 10.08C16.3084 9.63 16.4884 9.18 16.8184 8.85L18.0184 7.65C19.0584 6.61 19.4484 5.61 19.1184 4.82C18.7984 4.04 17.8084 3.61 16.3484 3.61H5.89844V2.75C5.89844 2.34 5.55844 2 5.14844 2C4.73844 2 4.39844 2.34 4.39844 2.75V21.25C4.39844 21.66 4.73844 22 5.14844 22C5.55844 22 5.89844 21.66 5.89844 21.25V16.37H16.3484C17.7884 16.37 18.7584 15.93 19.0884 15.14C19.4184 14.35 19.0384 13.36 18.0184 12.33Z" fill="#004E42"/>
</svg>
