<svg width="20" height="20" viewBox="0 0 20 20" fill="none" xmlns="http://www.w3.org/2000/svg">
<path d="M3.33594 18.3335H16.6693" stroke="#004E42" stroke-width="1.5" stroke-linecap="round"/>
<path d="M11.576 3.05228L12.1939 2.43436C13.2177 1.41055 14.8776 1.41055 15.9014 2.43436C16.9252 3.45816 16.9252 5.11807 15.9014 6.14187L15.2835 6.75979M11.576 3.05228C11.576 3.05228 11.6532 4.36535 12.8118 5.52395C13.9704 6.68255 15.2835 6.75979 15.2835 6.75979M11.576 3.05228L5.89515 8.7331C5.51038 9.11788 5.31799 9.31027 5.15254 9.52239C4.95736 9.77263 4.79003 10.0434 4.6535 10.3299C4.53776 10.5727 4.45172 10.8308 4.27964 11.3471L3.55048 13.5346M15.2835 6.75979L9.60267 12.4406C9.2179 12.8254 9.02551 13.0178 8.81338 13.1832C8.56315 13.3784 8.2924 13.5457 8.00592 13.6823C7.76307 13.798 7.50495 13.8841 6.98872 14.0561L4.80122 14.7853M4.80122 14.7853L4.2665 14.9635C4.01246 15.0482 3.73238 14.9821 3.54302 14.7927C3.35367 14.6034 3.28756 14.3233 3.37224 14.0693L3.55048 13.5346M4.80122 14.7853L3.55048 13.5346" stroke="#004E42" stroke-width="1.5"/>
</svg>
