<svg width="20" height="20" viewBox="0 0 20 20" fill="none" xmlns="http://www.w3.org/2000/svg">
<path d="M11.4382 2.9252L12.9048 5.85853C13.1048 6.26686 13.6382 6.65853 14.0882 6.73353L16.7465 7.1752C18.4465 7.45853 18.8465 8.69186 17.6215 9.90853L15.5548 11.9752C15.2048 12.3252 15.0132 13.0002 15.1215 13.4835L15.7132 16.0419C16.1798 18.0669 15.1048 18.8502 13.3132 17.7919L10.8215 16.3169C10.3715 16.0502 9.62984 16.0502 9.17151 16.3169L6.67984 17.7919C4.89651 18.8502 3.81317 18.0585 4.27984 16.0419L4.87151 13.4835C4.97984 13.0002 4.78817 12.3252 4.43817 11.9752L2.37151 9.90853C1.15484 8.69186 1.54651 7.45853 3.24651 7.1752L5.90484 6.73353C6.34651 6.65853 6.87984 6.26686 7.07984 5.85853L8.54651 2.9252C9.34651 1.33353 10.6465 1.33353 11.4382 2.9252Z" stroke="#EFC100" stroke-width="1.5" stroke-linecap="round" stroke-linejoin="round"/>
</svg>
