<svg width="24" height="24" viewBox="0 0 24 24" fill="none" xmlns="http://www.w3.org/2000/svg">
<path fill-rule="evenodd" clip-rule="evenodd" d="M11.5332 17.5008C10.5535 18.4254 9.00946 18.4083 8.05059 17.4494C7.07428 16.4731 7.07428 14.8902 8.05059 13.9139L15.8288 6.1357C16.024 5.94044 16.3406 5.94044 16.5359 6.1357C16.7311 6.33097 16.7311 6.64755 16.5359 6.84281L8.7577 14.621C8.17191 15.2068 8.17191 16.1565 8.7577 16.7423C9.34349 17.3281 10.2932 17.3281 10.879 16.7423L18.6572 8.96413C20.024 7.5973 20.024 5.38122 18.6572 4.01438C17.2904 2.64755 15.0743 2.64755 13.7074 4.01438L5.92927 11.7926C3.78139 13.9404 3.78139 17.4229 5.92927 19.5707C8.07716 21.7186 11.5596 21.7186 13.7074 19.5707L20.0714 13.2068C20.2667 13.0115 20.5833 13.0115 20.7785 13.2068C20.9738 13.402 20.9738 13.7186 20.7785 13.9139L14.4146 20.2778C11.8761 22.8162 7.76057 22.8162 5.22217 20.2778C2.70116 17.7568 2.68388 13.6802 5.17032 11.1379L13.0003 3.30728C14.7577 1.54992 17.6069 1.54992 19.3643 3.30728C21.1217 5.06464 21.1217 7.91388 19.3643 9.67124L11.534 17.5015L11.5332 17.5008Z" fill="#8E8E8E" stroke="#8E8E8E"/>
</svg>
