<svg width="200" height="200" viewBox="0 0 200 200" fill="none" xmlns="http://www.w3.org/2000/svg">
<path d="M183.497 140.166L157.413 79.1664C152.663 67.9998 145.58 61.6664 137.497 61.2498C129.497 60.8331 121.747 66.4164 115.83 77.0831L99.9968 105.5C96.6634 111.5 91.9134 115.083 86.7468 115.5C81.4968 116 76.2468 113.25 71.9968 107.833L70.1634 105.5C64.2468 98.0831 56.9134 94.4998 49.4134 95.2498C41.9134 95.9998 35.4968 101.166 31.2468 109.583L16.8301 138.333C11.6634 148.75 12.1634 160.833 18.2468 170.666C24.3301 180.5 34.9134 186.416 46.4968 186.416H152.83C163.997 186.416 174.413 180.833 180.58 171.5C186.913 162.166 187.913 150.416 183.497 140.166Z" fill="#004E42" fill-opacity="0.2"/>
<path d="M58.0807 69.8333C73.6367 69.8333 86.2474 57.2227 86.2474 41.6667C86.2474 26.1106 73.6367 13.5 58.0807 13.5C42.5247 13.5 29.9141 26.1106 29.9141 41.6667C29.9141 57.2227 42.5247 69.8333 58.0807 69.8333Z" fill="#004E42" fill-opacity="0.2"/>
</svg>
