<svg width="48" height="48" viewBox="0 0 48 48" fill="none" xmlns="http://www.w3.org/2000/svg">
<circle cx="24" cy="24" r="24" fill="#EDF2DF" fill-opacity="0.7"/>
<g clip-path="url(#clip0_2319_12537)">
<path d="M22.852 22.5513C22.8505 24.673 22.8505 26.7942 22.852 28.9154C22.852 34.8864 18.7706 36.7207 15.4418 38.282L12.589 33.7157C15.0852 32.428 16.591 30.9838 16.591 29.0324C16.591 28.5699 16.5949 28.3722 16.591 26.0082C16.591 25.7453 16.591 25.5275 16.591 25.3802C15.2995 24.3697 14.0086 23.3593 12.7171 22.3488C12.4779 20.8471 12.2392 19.3453 12 17.8435C13.5307 17.8426 15.0608 17.8411 16.5915 17.8402C16.4249 17.4525 16.2237 16.8796 16.1292 16.1623C16.1292 16.1623 16.0756 15.7478 16.0756 15.3313C16.0761 11.5068 19.0083 9.28198 23.1297 9.28198C26.0224 9.28198 27.5677 10.3356 28.8358 11.7405L25.8242 14.8625C25.547 14.4724 24.9127 13.8871 24.1201 13.8871C23.6149 13.8871 23.1453 14.0421 22.7726 14.3343C22.0911 14.8688 22.0029 15.6844 21.941 16.2285C21.8655 16.8897 21.9761 17.4506 22.0954 17.8402H22.8583C22.8554 19.4105 22.8535 20.9804 22.8525 22.5513H22.852Z" fill="#004E42"/>
<path d="M36.0017 17.8478C35.7513 19.3548 35.5014 20.8624 35.251 22.3694C33.9469 23.3712 32.6433 24.373 31.3391 25.3749C31.3391 25.4123 31.3391 25.9784 31.3391 26.0168C31.3391 28.6826 31.3391 28.9326 31.3391 29.0209C31.3391 30.9722 32.8449 32.4164 35.3412 33.7042L32.4883 38.2704C29.1596 36.7096 25.0781 34.8754 25.0781 28.9038C25.0884 24.16 25.0991 27.1885 25.1093 22.4447C25.1054 20.9127 25.101 19.3807 25.0971 17.8487C28.7318 17.8487 32.3661 17.8483 36.0008 17.8478H36.0017Z" fill="#004E42"/>
</g>
<defs>
<clipPath id="clip0_2319_12537">
<rect width="24" height="29" fill="white" transform="translate(12 9.28198)"/>
</clipPath>
</defs>
</svg>
