<svg width="20" height="20" viewBox="0 0 20 20" fill="none" xmlns="http://www.w3.org/2000/svg">
<path d="M14.1665 7.49984C14.1665 10.7248 11.3665 13.3332 7.9165 13.3332L7.14151 14.2665L6.68317 14.8165C6.29151 15.2832 5.5415 15.1832 5.28317 14.6248L4.1665 12.1665C2.64984 11.0998 1.6665 9.40817 1.6665 7.49984C1.6665 4.27484 4.4665 1.6665 7.9165 1.6665C10.4332 1.6665 12.6082 3.05818 13.5832 5.05818C13.9582 5.79984 14.1665 6.62484 14.1665 7.49984Z" stroke="#004E42" stroke-width="1.5" stroke-linecap="round" stroke-linejoin="round"/>
<path d="M18.3333 10.7164C18.3333 12.6248 17.3499 14.3165 15.8333 15.3831L14.7166 17.8414C14.4583 18.3997 13.7083 18.5081 13.3166 18.0331L12.0833 16.5498C10.0666 16.5498 8.2666 15.6581 7.1416 14.2664L7.9166 13.3331C11.3666 13.3331 14.1666 10.7248 14.1666 7.49977C14.1666 6.62477 13.9583 5.79977 13.5833 5.05811C16.3083 5.68311 18.3333 7.98309 18.3333 10.7164Z" stroke="#004E42" stroke-width="1.5" stroke-linecap="round" stroke-linejoin="round"/>
<path d="M5.8335 7.5H10.0002" stroke="#004E42" stroke-width="1.5" stroke-linecap="round" stroke-linejoin="round"/>
</svg>
