<svg width="40" height="40" viewBox="0 0 40 40" fill="none" xmlns="http://www.w3.org/2000/svg">
<circle cx="20" cy="20" r="20" fill="#004E42" fill-opacity="0.2"/>
<path d="M17 10C14.38 10 12.25 12.13 12.25 14.75C12.25 17.32 14.26 19.4 16.88 19.49C16.96 19.48 17.04 19.48 17.1 19.49C17.12 19.49 17.13 19.49 17.15 19.49C17.16 19.49 17.16 19.49 17.17 19.49C19.73 19.4 21.74 17.32 21.75 14.75C21.75 12.13 19.62 10 17 10Z" fill="#004E42"/>
<path d="M22.0809 22.1499C19.2909 20.2899 14.7409 20.2899 11.9309 22.1499C10.6609 22.9999 9.96094 24.1499 9.96094 25.3799C9.96094 26.6099 10.6609 27.7499 11.9209 28.5899C13.3209 29.5299 15.1609 29.9999 17.0009 29.9999C18.8409 29.9999 20.6809 29.5299 22.0809 28.5899C23.3409 27.7399 24.0409 26.5999 24.0409 25.3599C24.0309 24.1299 23.3409 22.9899 22.0809 22.1499Z" fill="#004E42"/>
<path d="M27.9894 15.3401C28.1494 17.2801 26.7694 18.9801 24.8594 19.2101C24.8494 19.2101 24.8494 19.2101 24.8394 19.2101H24.8094C24.7494 19.2101 24.6894 19.2101 24.6394 19.2301C23.6694 19.2801 22.7794 18.9701 22.1094 18.4001C23.1394 17.4801 23.7294 16.1001 23.6094 14.6001C23.5394 13.7901 23.2594 13.0501 22.8394 12.4201C23.2194 12.2301 23.6594 12.1101 24.1094 12.0701C26.0694 11.9001 27.8194 13.3601 27.9894 15.3401Z" fill="#004E42"/>
<path d="M29.9922 24.5904C29.9122 25.5604 29.2922 26.4004 28.2522 26.9704C27.2522 27.5204 25.9922 27.7804 24.7422 27.7504C25.4622 27.1004 25.8822 26.2904 25.9622 25.4304C26.0622 24.1904 25.4722 23.0004 24.2922 22.0504C23.6222 21.5204 22.8422 21.1004 21.9922 20.7904C24.2022 20.1504 26.9822 20.5804 28.6922 21.9604C29.6122 22.7004 30.0822 23.6304 29.9922 24.5904Z" fill="#004E42"/>
</svg>
