<svg width="40" height="40" viewBox="0 0 40 40" fill="none" xmlns="http://www.w3.org/2000/svg">
<circle cx="20" cy="20" r="20" fill="#004E42" fill-opacity="0.2"/>
<path d="M26.0184 20.33L24.7984 19.11C24.5084 18.86 24.3384 18.49 24.3284 18.08C24.3084 17.63 24.4884 17.18 24.8184 16.85L26.0184 15.65C27.0584 14.61 27.4484 13.61 27.1184 12.82C26.7984 12.04 25.8084 11.61 24.3484 11.61H13.8984V10.75C13.8984 10.34 13.5584 10 13.1484 10C12.7384 10 12.3984 10.34 12.3984 10.75V29.25C12.3984 29.66 12.7384 30 13.1484 30C13.5584 30 13.8984 29.66 13.8984 29.25V24.37H24.3484C25.7884 24.37 26.7584 23.93 27.0884 23.14C27.4184 22.35 27.0384 21.36 26.0184 20.33Z" fill="#004E42"/>
</svg>
