<svg width="48" height="48" viewBox="0 0 48 48" fill="none" xmlns="http://www.w3.org/2000/svg">
<rect width="48" height="48" rx="5" fill="#004E42" fill-opacity="0.1"/>
<path d="M20.687 22.6813C20.5703 22.6697 20.4303 22.6697 20.302 22.6813C17.5253 22.588 15.3203 20.313 15.3203 17.513C15.3203 14.6547 17.6303 12.333 20.5003 12.333C23.3586 12.333 25.6803 14.6547 25.6803 17.513C25.6686 20.313 23.4636 22.588 20.687 22.6813Z" stroke="#004E42" stroke-width="1.5" stroke-linecap="round" stroke-linejoin="round"/>
<path d="M29.1439 14.667C31.4072 14.667 33.2272 16.4987 33.2272 18.7503C33.2272 20.9553 31.4772 22.752 29.2955 22.8337C29.2022 22.822 29.0972 22.822 28.9922 22.8337" stroke="#004E42" stroke-width="1.5" stroke-linecap="round" stroke-linejoin="round"/>
<path d="M14.8519 26.987C12.0285 28.877 12.0285 31.957 14.8519 33.8353C18.0602 35.982 23.3219 35.982 26.5302 33.8353C29.3535 31.9453 29.3535 28.8653 26.5302 26.987C23.3335 24.852 18.0719 24.852 14.8519 26.987Z" stroke="#004E42" stroke-width="1.5" stroke-linecap="round" stroke-linejoin="round"/>
<path d="M31.3984 33.333C32.2384 33.158 33.0318 32.8197 33.6851 32.318C35.5051 30.953 35.5051 28.7013 33.6851 27.3363C33.0434 26.8463 32.2618 26.5197 31.4334 26.333" stroke="#004E42" stroke-width="1.5" stroke-linecap="round" stroke-linejoin="round"/>
</svg>
