<svg width="48" height="48" viewBox="0 0 48 48" fill="none" xmlns="http://www.w3.org/2000/svg">
<rect width="48" height="48" rx="5" fill="#004E42" fill-opacity="0.1"/>
<path d="M32.5139 19.2397V25.2481C32.5139 28.8414 30.4605 30.3814 27.3805 30.3814H17.1255C16.6005 30.3814 16.0988 30.3348 15.6322 30.2298C15.3405 30.1831 15.0605 30.1015 14.8039 30.0081C13.0539 29.3548 11.9922 27.8381 11.9922 25.2481V19.2397C11.9922 15.6464 14.0455 14.1064 17.1255 14.1064H27.3805C29.9939 14.1064 31.8722 15.2148 32.3739 17.7464C32.4555 18.2131 32.5139 18.6914 32.5139 19.2397Z" stroke="#004E42" stroke-width="1.5" stroke-miterlimit="10" stroke-linecap="round" stroke-linejoin="round"/>
<path d="M36.0145 22.7399V28.7482C36.0145 32.3416 33.9612 33.8815 30.8812 33.8815H20.6261C19.7628 33.8815 18.9812 33.7649 18.3045 33.5083C16.9162 32.9949 15.9711 31.9333 15.6328 30.2299C16.0995 30.3349 16.6011 30.3815 17.1261 30.3815H27.3812C30.4612 30.3815 32.5145 28.8416 32.5145 25.2482V19.2399C32.5145 18.6915 32.4678 18.2016 32.3745 17.7466C34.5912 18.2132 36.0145 19.7765 36.0145 22.7399Z" stroke="#004E42" stroke-width="1.5" stroke-miterlimit="10" stroke-linecap="round" stroke-linejoin="round"/>
<path d="M22.2441 25.3295C23.9451 25.3295 25.3241 23.9505 25.3241 22.2495C25.3241 20.5484 23.9451 19.1694 22.2441 19.1694C20.543 19.1694 19.1641 20.5484 19.1641 22.2495C19.1641 23.9505 20.543 25.3295 22.2441 25.3295Z" stroke="#004E42" stroke-width="1.5" stroke-miterlimit="10" stroke-linecap="round" stroke-linejoin="round"/>
<path d="M15.5703 19.6831V24.8165" stroke="#004E42" stroke-width="1.5" stroke-miterlimit="10" stroke-linecap="round" stroke-linejoin="round"/>
<path d="M28.9219 19.6836V24.817" stroke="#004E42" stroke-width="1.5" stroke-miterlimit="10" stroke-linecap="round" stroke-linejoin="round"/>
</svg>
