<svg width="40" height="40" viewBox="0 0 40 40" fill="none" xmlns="http://www.w3.org/2000/svg">
<circle cx="20" cy="20" r="20" fill="#956D37" fill-opacity="0.2"/>
<path d="M13.7413 24C13.8513 23.51 13.6513 22.81 13.3013 22.46L10.8713 20.03C10.1113 19.27 9.81132 18.46 10.0313 17.76C10.2613 17.06 10.9713 16.58 12.0313 16.4L15.1513 15.88C15.6013 15.8 16.1513 15.4 16.3613 14.99L18.0813 11.54C18.5813 10.55 19.2613 10 20.0013 10C20.7413 10 21.4213 10.55 21.9213 11.54L23.6413 14.99C23.7713 15.25 24.0413 15.5 24.3313 15.67L13.5613 26.44C13.4213 26.58 13.1813 26.45 13.2213 26.25L13.7413 24Z" fill="#956D37"/>
<path d="M26.6969 22.4599C26.3369 22.8199 26.1369 23.5099 26.2569 23.9999L26.9469 27.0099C27.2369 28.2599 27.0569 29.1999 26.4369 29.6499C26.1869 29.8299 25.8869 29.9199 25.5369 29.9199C25.0269 29.9199 24.4269 29.7299 23.7669 29.3399L20.8369 27.5999C20.3769 27.3299 19.6169 27.3299 19.1569 27.5999L16.2269 29.3399C15.1169 29.9899 14.1669 30.0999 13.5569 29.6499C13.3269 29.4799 13.1569 29.2499 13.0469 28.9499L25.2069 16.7899C25.6669 16.3299 26.3169 16.1199 26.9469 16.2299L27.9569 16.3999C29.0169 16.5799 29.7269 17.0599 29.9569 17.7599C30.1769 18.4599 29.8769 19.2699 29.1169 20.0299L26.6969 22.4599Z" fill="#956D37"/>
</svg>
