<svg width="16" height="16" viewBox="0 0 16 16" fill="none" xmlns="http://www.w3.org/2000/svg">
<path d="M14.2851 1.71854C13.9518 1.37787 13.4584 1.25187 12.9984 1.38521L2.27178 4.48454C1.78644 4.61921 1.44244 5.00387 1.34978 5.49187C1.25511 5.98921 1.58578 6.62121 2.01778 6.88521L5.37178 8.93321C5.71578 9.14387 6.15978 9.09121 6.44444 8.80587L10.2851 4.96521C10.4784 4.76454 10.7984 4.76454 10.9918 4.96521C11.1851 5.15787 11.1851 5.47187 10.9918 5.67187L7.14444 9.51254C6.85911 9.79787 6.80578 10.2405 7.01578 10.5852L9.06511 13.9519C9.30511 14.3512 9.71844 14.5785 10.1718 14.5785C10.2251 14.5785 10.2851 14.5785 10.3384 14.5712C10.8584 14.5052 11.2718 14.1512 11.4251 13.6512L14.6051 3.00521C14.7451 2.55187 14.6184 2.05854 14.2851 1.71854Z" fill="white"/>
<path opacity="0.4" d="M5.59409 12.7612C5.78943 12.5666 6.10583 12.5665 6.30112 12.7612C6.49555 12.9565 6.49558 13.2729 6.30112 13.4682L5.38998 14.3783C5.29267 14.4762 5.16439 14.5248 5.03647 14.5248C4.90871 14.5247 4.78112 14.4761 4.68393 14.3783C4.4886 14.183 4.4886 13.8666 4.68393 13.6713L5.59409 12.7612ZM5.07065 10.2358C5.26598 10.0411 5.58332 10.0411 5.77866 10.2358C5.97301 10.4311 5.97318 10.7476 5.77866 10.9428L4.86752 11.853C4.77022 11.9508 4.64189 11.9994 4.51401 11.9994C4.38629 11.9993 4.25865 11.9506 4.16147 11.853C3.96613 11.6576 3.96613 11.3413 4.16147 11.1459L5.07065 10.2358ZM2.56381 9.44084C2.75912 9.24627 3.07552 9.24629 3.27084 9.44084C3.46549 9.63615 3.46544 9.95253 3.27084 10.1479L2.36069 11.058C2.26339 11.156 2.13512 11.2045 2.00717 11.2045C1.87917 11.2045 1.75099 11.156 1.65366 11.058C1.4585 10.8628 1.4586 10.5473 1.65366 10.352L2.56381 9.44084Z" fill="white"/>
</svg>
