<svg width="48" height="48" viewBox="0 0 48 48" fill="none" xmlns="http://www.w3.org/2000/svg">
<rect width="48" height="48" rx="5" fill="#004E42" fill-opacity="0.1"/>
<path d="M24.187 22.6813C24.0703 22.6697 23.9303 22.6697 23.802 22.6813C21.0253 22.588 18.8203 20.313 18.8203 17.513C18.8203 14.6547 21.1303 12.333 24.0003 12.333C26.8586 12.333 29.1803 14.6547 29.1803 17.513C29.1686 20.313 26.9636 22.588 24.187 22.6813Z" stroke="#004E42" stroke-width="1.5" stroke-linecap="round" stroke-linejoin="round"/>
<path d="M18.3519 26.987C15.5285 28.877 15.5285 31.957 18.3519 33.8353C21.5602 35.982 26.8219 35.982 30.0302 33.8353C32.8535 31.9453 32.8535 28.8653 30.0302 26.987C26.8335 24.852 21.5719 24.852 18.3519 26.987Z" stroke="#004E42" stroke-width="1.5" stroke-linecap="round" stroke-linejoin="round"/>
</svg>
