<svg width="20" height="20" viewBox="0 0 20 20" fill="none" xmlns="http://www.w3.org/2000/svg">
<path d="M4.78313 13.3337C4.8748 12.9253 4.70813 12.342 4.41647 12.0503L2.39147 10.0253C1.75813 9.39199 1.50813 8.71699 1.69147 8.13366C1.88313 7.55033 2.4748 7.15033 3.35813 7.00033L5.95813 6.56699C6.33313 6.50033 6.79147 6.16699 6.96647 5.82533L8.3998 2.95033C8.81647 2.12533 9.38313 1.66699 9.9998 1.66699C10.6165 1.66699 11.1831 2.12533 11.5998 2.95033L13.0331 5.82533C13.1415 6.04199 13.3665 6.25033 13.6081 6.39199L4.63313 15.367C4.51647 15.4837 4.31647 15.3753 4.3498 15.2087L4.78313 13.3337Z" fill="#EFC100"/>
<path d="M15.584 12.0496C15.284 12.3496 15.1173 12.9246 15.2173 13.3329L15.7923 15.8413C16.034 16.8829 15.884 17.6663 15.3673 18.0413C15.159 18.1913 14.909 18.2663 14.6173 18.2663C14.1923 18.2663 13.6923 18.1079 13.1423 17.7829L10.7007 16.3329C10.3173 16.1079 9.68398 16.1079 9.30065 16.3329L6.85898 17.7829C5.93398 18.3246 5.14232 18.4163 4.63398 18.0413C4.44232 17.8996 4.30065 17.7079 4.20898 17.4579L14.3423 7.32459C14.7257 6.94126 15.2673 6.76626 15.7923 6.85792L16.634 6.99959C17.5173 7.14959 18.109 7.54959 18.3007 8.13292C18.484 8.71626 18.234 9.39126 17.6007 10.0246L15.584 12.0496Z" fill="#EFC100"/>
</svg>
