<svg width="20" height="20" viewBox="0 0 20 20" fill="none" xmlns="http://www.w3.org/2000/svg">
<path d="M17.5 4.98356C14.725 4.70856 11.9333 4.56689 9.15 4.56689C7.5 4.56689 5.85 4.65023 4.2 4.81689L2.5 4.98356" stroke="#F6F6F6" stroke-width="1.5" stroke-linecap="round" stroke-linejoin="round"/>
<path d="M7.08594 4.1415L7.26927 3.04984C7.4026 2.25817 7.5026 1.6665 8.91094 1.6665H11.0943C12.5026 1.6665 12.6109 2.2915 12.7359 3.05817L12.9193 4.1415" stroke="#F6F6F6" stroke-width="1.5" stroke-linecap="round" stroke-linejoin="round"/>
<path d="M15.7057 7.6167L15.1641 16.0084C15.0724 17.3167 14.9974 18.3334 12.6724 18.3334H7.3224C4.9974 18.3334 4.9224 17.3167 4.83073 16.0084L4.28906 7.6167" stroke="white" stroke-width="1.5" stroke-linecap="round" stroke-linejoin="round"/>
<path d="M8.60938 13.75H11.3844" stroke="white" stroke-width="1.5" stroke-linecap="round" stroke-linejoin="round"/>
<path d="M7.91406 10.4165H12.0807" stroke="white" stroke-width="1.5" stroke-linecap="round" stroke-linejoin="round"/>
</svg>
