<svg width="24" height="24" viewBox="0 0 24 24" fill="none" xmlns="http://www.w3.org/2000/svg">
<path d="M18.216 5L19.2987 9.06L18.4027 9.30267C17.9827 8.49067 17.5533 7.67867 17.0587 7.268C16.564 6.86667 15.9853 6.86667 15.416 6.86667H13.0827V16.6667C13.0827 17.1333 13.0827 17.6 13.3907 17.8333C13.708 18.0667 14.324 18.0667 14.9493 18.0667V19H9.34933V18.0667C9.97467 18.0667 10.5907 18.0667 10.908 17.8333C11.216 17.6 11.216 17.1333 11.216 16.6667V6.86667H8.88267C8.31333 6.86667 7.73467 6.86667 7.24 7.268C6.74533 7.67867 6.316 8.49067 5.896 9.30267L5 9.06L6.08267 5H18.216Z" fill="#8E8E8E"/>
</svg>
