<svg width="40" height="40" viewBox="0 0 40 40" fill="none" xmlns="http://www.w3.org/2000/svg">
<circle cx="20" cy="20" r="20" fill="#956D37" fill-opacity="0.2"/>
<path d="M24.19 10H15.81C12.17 10 10 12.17 10 15.81V24.18C10 27.83 12.17 30 15.81 30H24.18C27.82 30 29.99 27.83 29.99 24.19V15.81C30 12.17 27.83 10 24.19 10ZM23.75 23.75H16.25C15.84 23.75 15.5 23.41 15.5 23C15.5 22.59 15.84 22.25 16.25 22.25H23.75C24.16 22.25 24.5 22.59 24.5 23C24.5 23.41 24.16 23.75 23.75 23.75ZM23.75 17.75H16.25C15.84 17.75 15.5 17.41 15.5 17C15.5 16.59 15.84 16.25 16.25 16.25H23.75C24.16 16.25 24.5 16.59 24.5 17C24.5 17.41 24.16 17.75 23.75 17.75Z" fill="#956D37"/>
</svg>
